<svg width="170" height="40" viewBox="0 0 170 40" fill="none" xmlns="http://www.w3.org/2000/svg">
<path fill-rule="evenodd" clip-rule="evenodd" d="M19.6563 6.2395C19.6563 5.93285 19.5345 5.63875 19.3176 5.42191C19.1008 5.20507 18.8067 5.08325 18.5 5.08325C18.1934 5.08325 17.8993 5.20507 17.6824 5.42191C17.4656 5.63875 17.3438 5.93285 17.3438 6.2395V8.93742H14.3005C13.7589 8.93718 13.2298 9.09995 12.782 9.40454L10.1689 11.1836C10.1047 11.2271 10.029 11.2502 9.9515 11.2499H3.62758C3.32092 11.2499 3.02683 11.3717 2.80999 11.5886C2.59315 11.8054 2.47133 12.0995 2.47133 12.4062C2.47133 12.7128 2.59315 13.0069 2.80999 13.2238C3.02683 13.4406 3.32092 13.5624 3.62758 13.5624H6.05879L0.867998 25.4024C0.76995 25.6335 0.748483 25.8899 0.806744 26.134C0.865005 26.3781 0.999931 26.5972 1.19175 26.7591C1.31508 26.8578 1.43996 26.9518 1.66812 27.0998C1.95487 27.2863 2.36496 27.5284 2.88912 27.7673C3.93746 28.2468 5.45137 28.7232 7.32296 28.7232C8.85233 28.7261 10.3645 28.4001 11.7568 27.7673C12.281 27.5284 12.691 27.2863 12.9778 27.0998C13.209 26.9503 13.3324 26.8562 13.4557 26.756C13.6491 26.5959 13.7851 26.3773 13.8432 26.1331C13.9013 25.8889 13.8784 25.6324 13.7779 25.4024L8.58558 13.5624H9.9515C10.4926 13.5624 11.0214 13.399 11.4685 13.0953L14.0832 11.3162C14.1469 11.2731 14.222 11.25 14.299 11.2499H17.3438V33.6041H10.4263C10.1197 33.6041 9.82558 33.7259 9.60874 33.9427C9.3919 34.1596 9.27008 34.4537 9.27008 34.7603C9.27008 35.067 9.3919 35.3611 9.60874 35.5779C9.82558 35.7948 10.1197 35.9166 10.4263 35.9166H26.5737C26.8804 35.9166 27.1745 35.7948 27.3913 35.5779C27.6082 35.3611 27.73 35.067 27.73 34.7603C27.73 34.4537 27.6082 34.1596 27.3913 33.9427C27.1745 33.7259 26.8804 33.6041 26.5737 33.6041H19.6563V11.2499H22.6995C22.7766 11.2499 22.8537 11.273 22.9154 11.3162L25.5316 13.0953C25.9787 13.399 26.5075 13.5624 27.0486 13.5624H28.4145L23.2222 25.4024C23.1183 25.6392 23.0969 25.9039 23.1611 26.1543C23.2254 26.4047 23.3717 26.6263 23.5767 26.7838C23.5952 26.7976 23.5767 26.7838 23.5798 26.7838C23.7327 26.8989 23.8923 27.005 24.0577 27.1013C24.343 27.274 24.7515 27.496 25.2757 27.718C26.6697 28.3007 28.1662 28.5984 29.6771 28.5937C31.1886 28.5981 32.6857 28.2999 34.0801 27.7165C34.6012 27.496 35.0113 27.274 35.298 27.1013C35.4629 27.004 35.6224 26.898 35.776 26.7838C35.981 26.6263 36.1273 26.4047 36.1916 26.1543C36.2559 25.9039 36.2344 25.6392 36.1305 25.4024L30.9413 13.5624H33.374C33.6807 13.5624 33.9748 13.4406 34.1916 13.2238C34.4085 13.0069 34.5303 12.7128 34.5303 12.4062C34.5303 12.0995 34.4085 11.8054 34.1916 11.5886C33.9748 11.3717 33.6807 11.2499 33.374 11.2499H27.0501C26.9732 11.2499 26.898 11.2268 26.8343 11.1836L24.2181 9.40454C23.7707 9.10024 23.2421 8.93749 22.7011 8.93742H19.6563V6.2395ZM3.38091 25.4302C4.59436 26.0759 5.94841 26.4121 7.32296 26.4091C8.6975 26.4121 10.0516 26.0759 11.265 25.4302L7.32296 16.4423L3.38091 25.4302ZM25.7505 25.3932C25.8769 25.4548 26.0188 25.5211 26.1745 25.5874C26.9915 25.9312 28.1863 26.2812 29.6771 26.2812C31.0362 26.285 32.3786 25.9814 33.6038 25.3932L29.6771 16.4407L25.7505 25.3932Z" fill="white"/>
<path d="M51.208 4.464H47.608V2.64H57.208V4.464H53.576V14H51.208V4.464ZM65.118 11.568H60.27L59.47 14H57.134L60.99 2.64H64.494L68.35 14H65.918L65.118 11.568ZM64.526 9.728L62.702 4.16L60.878 9.728H64.526ZM70.0148 2.64H77.6308V4.464H72.3668V14H70.0148V2.64ZM89.3905 2.64V14H87.0865V5.328L82.2545 14H79.3745V2.64H81.6625V11.216L86.4465 2.64H89.3905ZM97.9995 2.64C98.7355 2.64 99.3915 2.8 99.9675 3.12C100.544 3.44 100.992 3.88267 101.312 4.448C101.632 5.00267 101.792 5.632 101.792 6.336C101.792 7.04 101.632 7.67467 101.312 8.24C100.992 8.79467 100.544 9.232 99.9675 9.552C99.3915 9.872 98.7355 10.032 97.9995 10.032H94.3355V14H91.9835V2.64H97.9995ZM99.4235 6.16C99.4235 5.616 99.2368 5.2 98.8635 4.912C98.5008 4.61333 98.0368 4.464 97.4715 4.464H94.3355V8.208H97.4715C98.0262 8.208 98.4902 8.05867 98.8635 7.76C99.2368 7.46133 99.4235 7.04533 99.4235 6.512V6.16ZM108.788 14.256C107.593 14.256 106.575 14.0107 105.732 13.52C104.889 13.0293 104.249 12.336 103.812 11.44C103.385 10.544 103.172 9.504 103.172 8.32C103.172 7.136 103.385 6.096 103.812 5.2C104.249 4.304 104.889 3.61067 105.732 3.12C106.575 2.62933 107.593 2.384 108.788 2.384C109.983 2.384 111.001 2.62933 111.844 3.12C112.687 3.61067 113.321 4.304 113.748 5.2C114.185 6.096 114.404 7.136 114.404 8.32C114.404 9.504 114.185 10.544 113.748 11.44C113.321 12.336 112.687 13.0293 111.844 13.52C111.001 14.0107 109.983 14.256 108.788 14.256ZM108.788 12.432C109.801 12.432 110.575 12.0907 111.108 11.408C111.652 10.7147 111.924 9.808 111.924 8.688V7.952C111.924 6.832 111.652 5.93067 111.108 5.248C110.575 4.55467 109.801 4.208 108.788 4.208C107.775 4.208 106.996 4.55467 106.452 5.248C105.919 5.93067 105.652 6.832 105.652 7.952V8.688C105.652 9.808 105.919 10.7147 106.452 11.408C106.996 12.0907 107.775 12.432 108.788 12.432ZM124.166 8.08C124.753 8.272 125.233 8.592 125.606 9.04C125.99 9.47733 126.182 10.0533 126.182 10.768C126.182 11.4187 126.033 11.9893 125.734 12.48C125.446 12.9707 125.041 13.3493 124.518 13.616C123.995 13.872 123.403 14 122.742 14H116.374V2.64H122.326C122.955 2.64 123.531 2.75733 124.054 2.992C124.587 3.216 125.009 3.55733 125.318 4.016C125.638 4.464 125.798 5.008 125.798 5.648C125.798 6.27733 125.638 6.8 125.318 7.216C125.009 7.632 124.625 7.92 124.166 8.08ZM118.726 4.448V7.344H121.782C122.262 7.344 122.657 7.232 122.966 7.008C123.275 6.784 123.43 6.44267 123.43 5.984V5.76C123.43 5.312 123.275 4.98133 122.966 4.768C122.667 4.55467 122.278 4.448 121.798 4.448H118.726ZM123.782 10.56C123.782 10.0693 123.622 9.70667 123.302 9.472C122.982 9.22667 122.571 9.104 122.07 9.104H118.726V12.192H122.07C122.571 12.192 122.982 12.08 123.302 11.856C123.622 11.6213 123.782 11.2587 123.782 10.768V10.56ZM135.009 11.568H130.161L129.361 14H127.025L130.881 2.64H134.385L138.241 14H135.809L135.009 11.568ZM134.417 9.728L132.593 4.16L130.769 9.728H134.417ZM58.328 24.64V36H56.024V27.328L51.192 36H48.312V24.64H50.6V33.216L55.384 24.64H58.328ZM74.4883 36H72.1203V26.48H67.3043V36H64.9523V24.64H74.4883V36ZM84.1493 33.568H79.3013L78.5013 36H76.1653L80.0213 24.64H83.5253L87.3813 36H84.9493L84.1493 33.568ZM83.5573 31.728L81.7333 26.16L79.9093 31.728H83.5573ZM95.062 24.64C95.798 24.64 96.454 24.8 97.03 25.12C97.606 25.44 98.054 25.8827 98.374 26.448C98.694 27.0027 98.854 27.632 98.854 28.336C98.854 29.04 98.694 29.6747 98.374 30.24C98.054 30.7947 97.606 31.232 97.03 31.552C96.454 31.872 95.798 32.032 95.062 32.032H91.398V36H89.046V24.64H95.062ZM96.486 28.16C96.486 27.616 96.2993 27.2 95.926 26.912C95.5633 26.6133 95.0993 26.464 94.534 26.464H91.398V30.208H94.534C95.0887 30.208 95.5527 30.0587 95.926 29.76C96.2993 29.4613 96.486 29.0453 96.486 28.512V28.16ZM103.442 26.464H99.8424V24.64H109.442V26.464H105.81V36H103.442V26.464ZM121.039 24.64V36H118.671V31.232H113.695V36H111.343V24.64H113.695V29.392H118.671V24.64H121.039ZM125.976 26.464V29.392H131.816V31.232H125.976V34.176H132.152V36H123.624V24.64H132.152V26.464H125.976ZM140.25 24.64C140.986 24.64 141.642 24.8 142.218 25.12C142.794 25.44 143.242 25.8827 143.562 26.448C143.882 27.0027 144.042 27.632 144.042 28.336C144.042 29.04 143.882 29.6747 143.562 30.24C143.242 30.7947 142.794 31.232 142.218 31.552C141.642 31.872 140.986 32.032 140.25 32.032H136.586V36H134.234V24.64H140.25ZM141.674 28.16C141.674 27.616 141.487 27.2 141.114 26.912C140.751 26.6133 140.287 26.464 139.722 26.464H136.586V30.208H139.722C140.276 30.208 140.74 30.0587 141.114 29.76C141.487 29.4613 141.674 29.0453 141.674 28.512V28.16ZM151.376 28.608C152.112 28.608 152.768 28.768 153.344 29.088C153.92 29.408 154.368 29.8507 154.688 30.416C155.008 30.9707 155.168 31.6 155.168 32.304C155.168 33.008 155.008 33.6427 154.688 34.208C154.368 34.7627 153.92 35.2 153.344 35.52C152.768 35.84 152.112 36 151.376 36H145.968V24.64H148.32V28.608H151.376ZM158.784 24.64V36H156.432V24.64H158.784ZM152.8 32.128C152.8 31.584 152.613 31.168 152.24 30.88C151.867 30.5813 151.403 30.432 150.848 30.432H148.32V34.176H150.848C151.413 34.176 151.877 34.032 152.24 33.744C152.613 33.4453 152.8 33.024 152.8 32.48V32.128Z" fill="white"/>
</svg>
