<svg width="15" height="15" viewBox="0 0 15 15" fill="none" xmlns="http://www.w3.org/2000/svg">
<path d="M12.5 2.5H2.5C2.16848 2.5 1.85054 2.6317 1.61612 2.86612C1.3817 3.10054 1.25 3.41848 1.25 3.75V11.25C1.25 11.5815 1.3817 11.8995 1.61612 12.1339C1.85054 12.3683 2.16848 12.5 2.5 12.5H12.5C12.8315 12.5 13.1495 12.3683 13.3839 12.1339C13.6183 11.8995 13.75 11.5815 13.75 11.25V3.75C13.75 3.41848 13.6183 3.10054 13.3839 2.86612C13.1495 2.6317 12.8315 2.5 12.5 2.5V2.5ZM12.5 5.4375L7.5 8.77125L2.5 5.4375V3.93562L7.5 7.26875L12.5 3.93562V5.4375Z" fill="#FEC641"/>
</svg>
