<svg width="15" height="15" viewBox="0 0 15 15" fill="none" xmlns="http://www.w3.org/2000/svg">
<path d="M12.8044 10.7124L10.2638 8.40241C10.1437 8.29325 9.9859 8.23504 9.82368 8.24005C9.66147 8.24506 9.50756 8.31292 9.39443 8.42928L7.8988 9.96741C7.5388 9.89866 6.81505 9.67303 6.07005 8.92991C5.32505 8.18428 5.09943 7.45866 5.03255 7.10116L6.56943 5.60491C6.68594 5.49186 6.75389 5.33792 6.75891 5.17566C6.76392 5.0134 6.70561 4.85556 6.5963 4.73553L4.28693 2.19553C4.17758 2.07513 4.0256 2.0021 3.86327 1.99194C3.70095 1.98179 3.54105 2.03532 3.41755 2.14116L2.0613 3.30428C1.95325 3.41273 1.88875 3.55706 1.88005 3.70991C1.87068 3.86616 1.69193 7.56741 4.56193 10.4387C7.06568 12.9418 10.2019 13.1249 11.0657 13.1249C11.1919 13.1249 11.2694 13.1212 11.2901 13.1199C11.4429 13.1114 11.5871 13.0466 11.6951 12.938L12.8576 11.5812C12.9638 11.4581 13.0177 11.2983 13.0078 11.136C12.9979 10.9737 12.9249 10.8216 12.8044 10.7124V10.7124Z" fill="#FEC641"/>
</svg>
