<svg width="15" height="15" viewBox="0 0 15 15" fill="none" xmlns="http://www.w3.org/2000/svg">
<path fill-rule="evenodd" clip-rule="evenodd" d="M3.5 0H4.96739V1.63043H11L11.9783 2.6087V14.0217L11 15H4.47826L3.5 14.0217V0ZM5.13043 3.91304L5.45652 3.58696H10.0217L10.3478 3.91304V7.17391L10.0217 7.5H5.45652L5.13043 7.17391V3.91304ZM5.13043 8.80435L5.45652 8.47826H6.1087L6.43478 8.80435V9.45652L6.1087 9.78261H5.45652L5.13043 9.45652V8.80435ZM7.41304 8.47826L7.08696 8.80435V9.45652L7.41304 9.78261H8.06522L8.3913 9.45652V8.80435L8.06522 8.47826H7.41304ZM7.08696 10.7609L7.41304 10.4348H8.06522L8.3913 10.7609V11.413L8.06522 11.7391H7.41304L7.08696 11.413V10.7609ZM7.08696 12.7174L7.41304 12.3913H8.06522L8.3913 12.7174V13.3696L8.06522 13.6957H7.41304L7.08696 13.3696V12.7174ZM5.45652 10.4348L5.13043 10.7609V11.413L5.45652 11.7391H6.1087L6.43478 11.413V10.7609L6.1087 10.4348H5.45652ZM9.04348 10.7609L9.36957 10.4348H10.0217L10.3478 10.7609V11.413L10.0217 11.7391H9.36957L9.04348 11.413V10.7609ZM9.36957 8.47826L9.04348 8.80435V9.45652L9.36957 9.78261H10.0217L10.3478 9.45652V8.80435L10.0217 8.47826H9.36957ZM9.04348 12.7174L9.36957 12.3913H10.0217L10.3478 12.7174V13.3696L10.0217 13.6957H9.36957L9.04348 13.3696V12.7174ZM5.45652 12.3913L5.13043 12.7174V13.3696L5.45652 13.6957H6.1087L6.43478 13.3696V12.7174L6.1087 12.3913H5.45652Z" fill="#FEC641"/>
</svg>
